<svg width="1920" height="1080" viewBox="0 0 1920 1080" fill="none" xmlns="http://www.w3.org/2000/svg">
<rect width="1920" height="1080" fill="#E5E5E5"/>
<g clip-path="url(#clip0)">
<rect width="1920" height="1080" fill="white"/>
<ellipse cx="1591" cy="438" rx="931" ry="533" fill="#0B36A7"/>
<path d="M2025 440.352C2025 657.773 1544.45 1060.27 1422.43 656.217C1300.42 252.163 895 385.176 895 167.755C895 -49.6658 1244.22 -27.353 1485.43 -27.353C1726.65 -27.353 2025 222.932 2025 440.352Z" fill="#218EF3"/>
<path d="M2279 330.447C2279 504.739 1759.75 827.394 1627.91 503.491C1496.07 179.588 1058 286.216 1058 111.924C1058 -62.3681 1435.34 -44.4813 1695.98 -44.4813C1956.62 -44.4813 2279 156.155 2279 330.447Z" fill="#B0DFE5"/>
<g clip-path="url(#clip1)">
<path d="M1365.75 630.337V805.751L1396.12 853.569L1398.43 857.207H1518.27L1520.69 630.337H1365.75Z" fill="#E6E6E6"/>
<path opacity="0.1" d="M1365.75 630.337V805.751L1396.12 853.569L1397.99 630.337H1365.75Z" fill="black"/>
<path d="M1076.46 625.659V801.074L1046.09 848.892L1043.78 852.528H923.943L921.522 625.659H1076.46Z" fill="#E6E6E6"/>
<path opacity="0.1" d="M1076.46 625.659V801.074L1046.09 848.892L1044.22 625.659H1076.46Z" fill="black"/>
<path d="M1557 622.151V632.675H905.786V617.473L966.308 587.067H1503.74L1557 622.151Z" fill="#E6E6E6"/>
<path opacity="0.1" d="M1557 622.151V632.675H905.786V617.473L1557 622.151Z" fill="black"/>
<path d="M998.99 674.775H969.939L957.835 666.589H1012.3L998.99 674.775Z" fill="#3F3D56"/>
<path d="M998.99 708.689H969.939L957.835 700.503H1012.3L998.99 708.689Z" fill="#3F3D56"/>
<path d="M998.99 756.636H969.939L957.835 748.449H1012.3L998.99 756.636Z" fill="#3F3D56"/>
<path d="M998.99 804.582H969.939L957.835 796.396H1012.3L998.99 804.582Z" fill="#3F3D56"/>
<path d="M1443.22 679.452H1472.27L1484.37 671.266H1429.9L1443.22 679.452Z" fill="#3F3D56"/>
<path d="M1443.22 713.366H1472.27L1484.37 705.18H1429.9L1443.22 713.366Z" fill="#3F3D56"/>
<path d="M1443.22 761.313H1472.27L1484.37 753.127H1429.9L1443.22 761.313Z" fill="#3F3D56"/>
<path d="M1443.22 809.26H1472.27L1484.37 801.074H1429.9L1443.22 809.26Z" fill="#3F3D56"/>
<path d="M1463 384.218H1218.44C1217.22 384.218 1216.02 384.449 1214.9 384.898C1213.78 385.347 1212.76 386.005 1211.9 386.835C1211.04 387.665 1210.36 388.65 1209.89 389.734C1209.43 390.818 1209.19 391.98 1209.19 393.154V552.318C1209.19 553.492 1209.43 554.654 1209.89 555.738C1210.36 556.822 1211.04 557.807 1211.9 558.637C1212.76 559.467 1213.78 560.125 1214.9 560.574C1216.02 561.023 1217.22 561.254 1218.44 561.254H1311.28L1307.8 582.708C1307.8 582.708 1287.92 592.91 1301.9 593.21C1315.87 593.511 1381.72 593.21 1381.72 593.21C1381.72 593.21 1394.45 593.21 1374.26 582.408L1370.99 561.254H1463C1464.22 561.254 1465.42 561.023 1466.54 560.574C1467.66 560.125 1468.68 559.467 1469.54 558.637C1470.4 557.807 1471.08 556.822 1471.55 555.738C1472.01 554.654 1472.25 553.492 1472.25 552.318V393.154C1472.25 391.98 1472.01 390.818 1471.55 389.734C1471.08 388.65 1470.4 387.665 1469.54 386.835C1468.68 386.005 1467.66 385.347 1466.54 384.898C1465.42 384.449 1464.22 384.218 1463 384.218V384.218Z" fill="#3F3D56"/>
<path d="M1463.4 393.67H1218.04V526.297H1463.4V393.67Z" fill="#F2F2F2"/>
<path d="M1340.72 390.969C1341.58 390.969 1342.27 390.298 1342.27 389.469C1342.27 388.64 1341.58 387.969 1340.72 387.969C1339.86 387.969 1339.17 388.64 1339.17 389.469C1339.17 390.298 1339.86 390.969 1340.72 390.969Z" fill="#F2F2F2"/>
<path d="M1340.72 554.803C1343.98 554.803 1346.62 552.25 1346.62 549.102C1346.62 545.953 1343.98 543.4 1340.72 543.4C1337.46 543.4 1334.82 545.953 1334.82 549.102C1334.82 552.25 1337.46 554.803 1340.72 554.803Z" fill="#F2F2F2"/>
<path d="M1331.52 609.414V612.415H1164.43V610.014L1164.66 609.414L1168.78 598.612H1328.11L1331.52 609.414Z" fill="#3F3D56"/>
<path d="M1395.83 606.476C1395.52 607.733 1394.37 609.06 1391.78 610.314C1382.46 614.815 1363.51 609.114 1363.51 609.114C1363.51 609.114 1348.92 606.713 1348.92 600.412C1349.33 600.141 1349.75 599.895 1350.2 599.677C1354.11 597.675 1367.1 592.734 1390.13 599.886C1391.83 600.401 1393.34 601.36 1394.51 602.658C1395.03 603.148 1395.41 603.75 1395.64 604.414C1395.87 605.078 1395.94 605.784 1395.83 606.476Z" fill="#3F3D56"/>
<path opacity="0.1" d="M1395.83 606.476C1384.42 610.698 1374.26 611.013 1363.82 604.013C1359.88 601.195 1355.1 599.675 1350.2 599.677C1354.11 597.675 1367.1 592.734 1390.13 599.886C1391.83 600.401 1393.34 601.36 1394.51 602.658C1395.03 603.148 1395.41 603.75 1395.64 604.414C1395.87 605.078 1395.94 605.784 1395.83 606.476Z" fill="black"/>
<path d="M1381.53 604.013C1383.76 604.013 1385.57 603.475 1385.57 602.812C1385.57 602.15 1383.76 601.612 1381.53 601.612C1379.3 601.612 1377.49 602.15 1377.49 602.812C1377.49 603.475 1379.3 604.013 1381.53 604.013Z" fill="#F2F2F2"/>
<path opacity="0.1" d="M1331.52 609.414V612.415H1164.43V610.014L1164.66 609.414H1331.52Z" fill="black"/>
<path d="M951.906 270C950.21 269.866 948.512 270.232 947.037 271.051C945.588 272.01 944.675 273.689 943.743 275.251C940.18 281.297 935.356 286.561 929.577 290.711C925.367 293.691 920.016 297.405 920.736 302.898C921.116 304.712 921.809 306.452 922.788 308.043C926.671 315.616 937.267 321.469 936.225 330.111C940.083 323.871 934.923 320.785 938.781 314.545C940.618 311.573 943.81 308.219 946.584 310.085C947.513 310.71 948.123 311.831 949.09 312.379C951.397 313.687 953.852 311.186 955.895 309.415C962.939 303.306 972.956 304.906 981.721 306.809C985.859 307.708 990.404 308.887 992.85 312.708C996.067 317.732 989.795 323.158 988.21 328.837C988.081 329.321 988.075 329.829 988.192 330.315C988.31 330.802 988.548 331.254 988.886 331.633C989.224 332.011 989.651 332.305 990.132 332.489C990.613 332.673 991.134 332.742 991.648 332.689C994.278 332.439 997.394 332.233 997.549 331.118C1000.86 331.232 1004.91 330.87 1006.33 327.541C1006.76 326.224 1006.99 324.852 1007.01 323.47C1007.53 317.878 1009.99 312.777 1011.61 307.455C1013.24 302.133 1013.95 295.896 1011.2 291.177C1010.22 289.607 1009.01 288.184 1007.61 286.952C992.021 272.381 971.53 269.979 951.906 270Z" fill="#2F2E41"/>
<path d="M939.615 341.026C939.615 341.026 943.004 368.314 930.576 370.497C918.149 372.68 941.874 409.792 941.874 409.792L998.364 416.341L984.806 372.68C984.806 372.68 975.768 369.405 981.417 347.575C987.066 325.745 939.615 341.026 939.615 341.026Z" fill="#FFB8B8"/>
<path d="M905.156 809.833L909.676 869.867H933.4L926.622 809.833H905.156Z" fill="#FFB8B8"/>
<path d="M1079.14 696.315L1082.53 746.525L1108.52 735.61L1098.35 694.133L1079.14 696.315Z" fill="#FFB8B8"/>
<path d="M888.209 580.614C888.209 580.614 889.339 643.922 896.118 664.661C902.896 685.4 901.767 686.492 900.637 689.766C899.507 693.041 898.377 690.858 898.377 696.315C898.377 701.773 896.118 788.003 898.377 795.644C900.637 803.284 891.599 816.382 898.377 817.474C905.156 818.565 936.79 817.474 937.92 810.925C939.05 804.376 928.882 802.193 933.401 797.827C937.92 793.461 944.699 703.956 944.699 703.956L960.516 641.739L989.89 608.994H1052.03L1071.24 681.034C1071.24 681.034 1063.33 701.773 1068.98 701.773C1074.62 701.773 1108.52 708.322 1108.52 684.309C1108.52 660.295 1097.22 589.347 1094.96 587.163C1092.7 584.98 1096.09 577.34 1092.7 574.065C1089.31 570.791 1049.77 547.869 1035.08 543.503C1020.39 539.137 999.791 533.94 999.791 533.94L888.209 580.614Z" fill="#2F2E41"/>
<path d="M1108.52 726.878C1108.52 726.878 1091.57 721.42 1083.66 737.793C1075.75 754.166 1079.14 758.532 1079.14 758.532C1079.14 758.532 1105.13 767.264 1109.65 762.898C1111.61 760.999 1117.86 760.339 1124.28 760.199C1134.07 759.987 1136.68 746.608 1127.43 743.493C1127.16 743.4 1126.88 743.319 1126.59 743.251C1117.56 741.068 1108.52 726.878 1108.52 726.878Z" fill="#2F2E41"/>
<path d="M965.035 359.036C983.754 359.036 998.929 344.375 998.929 326.29C998.929 308.205 983.754 293.545 965.035 293.545C946.316 293.545 931.141 308.205 931.141 326.29C931.141 344.375 946.316 359.036 965.035 359.036Z" fill="#FFB8B8"/>
<path d="M920.973 384.141C920.973 384.141 976.333 395.056 989.89 377.592C1003.45 360.127 1009.1 426.71 1009.1 426.71L1015.88 496.567L1005.71 534.771C1005.71 534.771 952.607 576.248 935.66 579.523C918.713 582.797 892.728 584.98 892.728 584.98C892.728 584.98 900.637 463.822 900.637 461.639C900.637 459.456 920.973 384.141 920.973 384.141Z" fill="#FD6F8D"/>
<path d="M937.809 363.67C937.809 363.67 925.492 356.853 922.103 363.402C918.713 369.951 887.079 386.324 883.69 386.324C880.301 386.324 890.469 476.92 885.95 487.835C881.43 498.75 859.964 578.431 872.392 584.98C884.82 591.53 875.781 578.431 888.209 594.804C900.637 611.177 961.645 611.177 965.035 604.628C968.424 598.079 937.92 548.96 943.569 503.116C949.218 457.273 958.256 393.965 950.348 385.232C942.439 376.5 937.809 363.67 937.809 363.67Z" fill="#2F2E41"/>
<path d="M978.592 371.043L980.166 365.81C980.166 365.81 1027.17 380.866 1029.43 390.69C1031.69 400.514 1030.56 469.279 1022.65 474.737C1014.75 480.195 1003.45 488.927 1011.36 502.025C1019.26 515.123 1028.3 529.313 1035.08 530.404C1041.86 531.496 1054.29 539.137 1050.9 546.777C1047.51 554.418 1006.84 540.228 1006.84 540.228C1006.84 540.228 979.722 520.581 980.852 490.018C981.982 459.456 978.592 371.043 978.592 371.043Z" fill="#2F2E41"/>
<path d="M1018.13 499.842L991.02 548.96C991.02 548.96 951.477 588.255 974.073 592.621C996.669 596.987 1009.1 556.601 1009.1 556.601L1038.47 516.215L1018.13 499.842Z" fill="#FFB8B8"/>
<path d="M953.557 278.568C952.191 278.47 950.823 278.727 949.593 279.311C948.482 280.095 947.566 281.109 946.912 282.279C943.899 286.659 939.971 290.381 935.38 293.206C931.953 295.312 927.597 297.938 928.183 301.82C928.502 303.122 929.068 304.355 929.854 305.456C933.026 310.863 934.288 317.121 933.451 323.283L942.873 310.052C944.369 307.952 946.967 305.581 949.225 306.9C949.981 307.341 950.477 308.134 951.265 308.521C953.143 309.446 955.142 307.678 956.805 306.426C962.538 302.108 970.693 303.239 977.828 304.584C981.196 305.22 984.896 306.053 986.888 308.754C990.197 313.242 986.741 319.726 988.673 324.911C989.213 324.545 989.673 324.079 990.023 323.538C990.373 322.998 990.608 322.395 990.713 321.766C993.406 321.846 996.707 321.59 997.861 319.237C998.212 318.315 998.399 317.342 998.414 316.36C998.838 312.408 1000.84 308.802 1002.16 305.041C1003.49 301.279 1004.06 296.871 1001.83 293.536C1001.01 292.406 1000.02 291.399 998.899 290.55C986.212 280.251 969.532 278.553 953.557 278.568Z" fill="#2F2E41"/>
<path d="M1018.13 386.324L1028.66 389.023C1028.66 389.023 1053.16 449.632 1047.51 491.11C1041.86 532.588 1038.47 523.855 1038.47 523.855C1038.47 523.855 1029.43 504.208 1009.1 508.574L1018.13 386.324Z" fill="#2F2E41"/>
<path d="M906.721 861.933C903.997 865.51 904.543 870.623 902.13 874.403C900.038 877.679 896.095 879.397 893.479 882.3C892.644 883.264 891.9 884.299 891.255 885.391C888.827 889.319 886.855 894.353 889.245 898.302C891.168 901.479 895.21 902.72 898.917 903.567C903.603 904.636 908.471 905.492 913.211 904.675C917.95 903.858 922.583 901.054 924.272 896.698C924.605 895.603 924.999 894.526 925.455 893.474C928.024 888.587 936.082 888.535 938.711 883.679C940.551 880.28 938.86 876.172 937.169 872.702L932.005 862.104C930.292 858.587 923.345 860.61 919.724 859.767C915.001 858.668 910.119 857.457 906.721 861.933Z" fill="#2F2E41"/>
<path d="M869.003 521.672L916.454 592.621C916.454 592.621 945.828 628.641 954.867 612.268C963.905 595.896 923.233 568.608 923.233 568.608L892.728 514.032L869.003 521.672Z" fill="#FFB8B8"/>
<path d="M892.728 388.507L883.69 386.324C883.69 386.324 865.613 391.782 861.094 414.703C856.575 437.625 859.964 529.313 865.613 530.404C871.262 531.496 893.513 514.44 897.075 518.056C900.637 521.672 889.339 503.116 892.728 493.293C896.118 483.469 892.728 388.507 892.728 388.507Z" fill="#2F2E41"/>
<path d="M1317.5 437.229H1288.3V444.021H1317.5V437.229Z" fill="#FD6F8D"/>
<path d="M1418.62 437.229H1408.34V444.021H1418.62V437.229Z" fill="#FD6F8D"/>
<path d="M1439.17 437.229H1428.89V444.021H1439.17V437.229Z" fill="#FD6F8D"/>
<path d="M1397.53 437.229H1327.77V444.021H1397.53V437.229Z" fill="#FD6F8D"/>
<path d="M1280.73 481.113H1251.52V487.905H1280.73V481.113Z" fill="#FD6F8D"/>
<path d="M1381.85 481.113H1371.57V487.905H1381.85V481.113Z" fill="#FD6F8D"/>
<path d="M1402.39 481.113H1392.12V487.905H1402.39V481.113Z" fill="#FD6F8D"/>
<path d="M1360.76 481.113H1291V487.905H1360.76V481.113Z" fill="#FD6F8D"/>
<path d="M1401.31 452.38H1372.11V459.171H1401.31V452.38Z" fill="#FD6F8D"/>
<path d="M1440.79 452.38H1411.59V459.171H1440.79V452.38Z" fill="#FD6F8D"/>
<path d="M1261.8 452.38H1251.52V459.171H1261.8V452.38Z" fill="#FD6F8D"/>
<path d="M1282.35 452.38H1272.07V459.171H1282.35V452.38Z" fill="#FD6F8D"/>
<path d="M1362.38 452.38H1292.62V459.171H1362.38V452.38Z" fill="#FD6F8D"/>
<path d="M1340.75 467.008H1311.55V473.799H1340.75V467.008Z" fill="#FD6F8D"/>
<path d="M1301.27 467.008H1272.07V473.799H1301.27V467.008Z" fill="#FD6F8D"/>
<path d="M1261.8 467.008H1251.52V473.799H1261.8V467.008Z" fill="#FD6F8D"/>
<path d="M1440.79 467.008H1430.51V473.799H1440.79V467.008Z" fill="#FD6F8D"/>
<path d="M1420.24 467.008H1350.48V473.799H1420.24V467.008Z" fill="#FD6F8D"/>
</g>
</g>
<defs>
<clipPath id="clip0">
<rect width="1920" height="1080" fill="white"/>
</clipPath>
<clipPath id="clip1">
<rect x="859" y="270" width="698" height="635" fill="white"/>
</clipPath>
</defs>
</svg>
